<!DOCTYPE svg PUBLIC "-//W3C//DTD SVG 1.1//EN" "http://www.w3.org/Graphics/SVG/1.1/DTD/svg11.dtd">
<!-- Uploaded to: SVG Repo, www.svgrepo.com, Transformed by: SVG Repo Mixer Tools -->
<svg width="800px" height="800px" viewBox="0 0 1024 1024" xmlns="http://www.w3.org/2000/svg" fill="#4f98f6" transform="matrix(-1, 0, 0, 1, 0, 0)rotate(0)" stroke="#4f98f6" stroke-width="39.936">
<g id="SVGRepo_bgCarrier" stroke-width="0"/>
<g id="SVGRepo_tracerCarrier" stroke-linecap="round" stroke-linejoin="round"/>
<g id="SVGRepo_iconCarrier">
<path fill="#4f98f6" d="M640 384v256H384V384h256zm64 0h192v256H704V384zm-64 512H384V704h256v192zm64 0V704h192v192H704zm-64-768v192H384V128h256zm64 0h192v192H704V128zM320 384v256H128V384h192zm0 512H128V704h192v192zm0-768v192H128V128h192z"/>
</g>
</svg>