<!DOCTYPE svg PUBLIC "-//W3C//DTD SVG 1.1//EN" "http://www.w3.org/Graphics/SVG/1.1/DTD/svg11.dtd">
<!-- Uploaded to: SVG Repo, www.svgrepo.com, Transformed by: SVG Repo Mixer Tools -->
<svg width="800px" height="800px" viewBox="0 0 512 512" version="1.1" xml:space="preserve" xmlns="http://www.w3.org/2000/svg" xmlns:xlink="http://www.w3.org/1999/xlink" fill="#000000" transform="matrix(-1, 0, 0, 1, 0, 0)">
<g id="SVGRepo_bgCarrier" stroke-width="0"/>
<g id="SVGRepo_tracerCarrier" stroke-linecap="round" stroke-linejoin="round"/>
<g id="SVGRepo_iconCarrier"> <style type="text/css"> .st0{fill:#333333;} .st1{fill:none;stroke:#333333;stroke-width:0.00512;stroke-linecap:round;stroke-linejoin:round;stroke-miterlimit:10;} </style> <g id="Layer_1"/> <g id="Layer_2"> <g> <g> <path class="st0" d="M456.64,463.07H308.81c-4.06,0-7.34-3.29-7.34-7.34V307.9c0-4.06,3.29-7.34,7.34-7.34h147.83 c4.06,0,7.34,3.29,7.34,7.34v147.83C463.98,459.79,460.69,463.07,456.64,463.07z"/> </g> <g> <path class="st0" d="M253.66,55.37l-92.52,160.24c-2.83,4.9,0.71,11.02,6.36,11.02h185.03c5.65,0,9.19-6.12,6.36-11.02 L266.38,55.37C263.55,50.48,256.49,50.48,253.66,55.37z"/> </g> <g> <circle class="st0" cx="133.85" cy="381.82" r="85.83"/> </g> </g> </g> </g>
</svg>